<svg width="250" height="62" viewBox="0 0 250 62" fill="none" xmlns="http://www.w3.org/2000/svg">
<mask id="path-1-outside-1_8030_7514" maskUnits="userSpaceOnUse" x="18.0215" y="10.2673" width="197" height="20" fill="black">
<rect fill="white" x="18.0215" y="10.2673" width="197" height="20"/>
<path d="M32.3259 19.8979C34.2795 20.5903 35.4912 22.0741 35.4912 24.1761C35.4912 27.1683 33.0183 28.9241 28.3692 28.9241H19.0215V11.6135H27.8746C32.4248 11.6135 34.6504 13.4682 34.6504 16.139C34.6504 17.7959 33.8096 19.1313 32.3259 19.8979ZM27.2316 15.1498H23.8684V18.4883H27.2316C28.8638 18.4883 29.7046 17.9195 29.7046 16.8067C29.7046 15.7186 28.8638 15.1498 27.2316 15.1498ZM27.9735 25.3878C29.6551 25.3878 30.5454 24.819 30.5454 23.632C30.5454 22.445 29.6551 21.8762 27.9735 21.8762H23.8684V25.3878H27.9735Z"/>
<path d="M38.0273 28.9241V11.6135H42.9237V25.0416H51.1833V28.9241H38.0273Z"/>
<path d="M66.2723 28.9241L64.9122 25.5609H57.5923L56.2322 28.9241H51.2369L58.8782 11.6135H63.7004L71.3665 28.9241H66.2723ZM59.0266 21.9504H63.4779L61.2522 16.411L59.0266 21.9504Z"/>
<path d="M81.1437 29.2703C75.6538 29.2703 71.6229 25.5362 71.6229 20.2688C71.6229 15.0015 75.6538 11.2673 81.1437 11.2673C84.3338 11.2673 86.9056 12.4296 88.5872 14.5316L85.4713 17.3508C84.3832 16.0401 83.0479 15.3229 81.391 15.3229C78.5471 15.3229 76.5688 17.3013 76.5688 20.2688C76.5688 23.2363 78.5471 25.2147 81.391 25.2147C83.0479 25.2147 84.3832 24.4975 85.4713 23.1869L88.5872 26.006C86.9056 28.108 84.3338 29.2703 81.1437 29.2703Z"/>
<path d="M102.393 28.9241L97.4473 22.6428L95.6173 24.5964V28.9241H90.7704V11.6135H95.6173V18.8098L102.319 11.6135H107.71L100.637 19.2796L108.081 28.9241H102.393Z"/>
<path d="M130.139 15.3971H121.459V19.2055H129.1V22.989H121.459V28.9241H116.562V11.6135H130.139V15.3971Z"/>
<path d="M143.136 28.9241L139.996 24.3244H137.325V28.9241H132.429V11.6135H140.342C145.065 11.6135 148.033 14.0617 148.033 18.0184C148.033 20.5656 146.796 22.445 144.645 23.4836L148.379 28.9241H143.136ZM143.087 18.0184C143.087 16.411 142.073 15.4713 140.045 15.4713H137.325V20.5408H140.045C142.073 20.5408 143.087 19.6011 143.087 18.0184Z"/>
<path d="M150.734 28.9241V11.6135H155.631V28.9241H150.734Z"/>
<path d="M159.114 28.9241V11.6135H167.3C173.037 11.6135 176.969 14.952 176.969 20.2688C176.969 25.5856 173.037 28.9241 167.3 28.9241H159.114ZM164.011 25.0168H167.102C170.045 25.0168 172.023 23.2611 172.023 20.2688C172.023 17.2766 170.045 15.5208 167.102 15.5208H164.011V25.0168Z"/>
<path d="M192.262 28.9241L190.901 25.5609H183.582L182.221 28.9241H177.226L184.867 11.6135H189.69L197.356 28.9241H192.262ZM185.016 21.9504H189.467L187.241 16.411L185.016 21.9504Z"/>
<path d="M213.558 11.6135L206.931 22.717V28.9241H202.034V22.6428L195.432 11.6135H200.6L204.705 18.4883L208.81 11.6135H213.558Z"/>
</mask>
<path d="M32.3259 19.8979C34.2795 20.5903 35.4912 22.0741 35.4912 24.1761C35.4912 27.1683 33.0183 28.9241 28.3692 28.9241H19.0215V11.6135H27.8746C32.4248 11.6135 34.6504 13.4682 34.6504 16.139C34.6504 17.7959 33.8096 19.1313 32.3259 19.8979ZM27.2316 15.1498H23.8684V18.4883H27.2316C28.8638 18.4883 29.7046 17.9195 29.7046 16.8067C29.7046 15.7186 28.8638 15.1498 27.2316 15.1498ZM27.9735 25.3878C29.6551 25.3878 30.5454 24.819 30.5454 23.632C30.5454 22.445 29.6551 21.8762 27.9735 21.8762H23.8684V25.3878H27.9735Z" stroke="white" stroke-opacity="0.31" stroke-width="1.4" mask="url(#path-1-outside-1_8030_7514)"/>
<path d="M38.0273 28.9241V11.6135H42.9237V25.0416H51.1833V28.9241H38.0273Z" stroke="white" stroke-opacity="0.31" stroke-width="1.4" mask="url(#path-1-outside-1_8030_7514)"/>
<path d="M66.2723 28.9241L64.9122 25.5609H57.5923L56.2322 28.9241H51.2369L58.8782 11.6135H63.7004L71.3665 28.9241H66.2723ZM59.0266 21.9504H63.4779L61.2522 16.411L59.0266 21.9504Z" stroke="white" stroke-opacity="0.31" stroke-width="1.4" mask="url(#path-1-outside-1_8030_7514)"/>
<path d="M81.1437 29.2703C75.6538 29.2703 71.6229 25.5362 71.6229 20.2688C71.6229 15.0015 75.6538 11.2673 81.1437 11.2673C84.3338 11.2673 86.9056 12.4296 88.5872 14.5316L85.4713 17.3508C84.3832 16.0401 83.0479 15.3229 81.391 15.3229C78.5471 15.3229 76.5688 17.3013 76.5688 20.2688C76.5688 23.2363 78.5471 25.2147 81.391 25.2147C83.0479 25.2147 84.3832 24.4975 85.4713 23.1869L88.5872 26.006C86.9056 28.108 84.3338 29.2703 81.1437 29.2703Z" stroke="white" stroke-opacity="0.31" stroke-width="1.4" mask="url(#path-1-outside-1_8030_7514)"/>
<path d="M102.393 28.9241L97.4473 22.6428L95.6173 24.5964V28.9241H90.7704V11.6135H95.6173V18.8098L102.319 11.6135H107.71L100.637 19.2796L108.081 28.9241H102.393Z" stroke="white" stroke-opacity="0.31" stroke-width="1.4" mask="url(#path-1-outside-1_8030_7514)"/>
<path d="M130.139 15.3971H121.459V19.2055H129.1V22.989H121.459V28.9241H116.562V11.6135H130.139V15.3971Z" stroke="white" stroke-opacity="0.31" stroke-width="1.4" mask="url(#path-1-outside-1_8030_7514)"/>
<path d="M143.136 28.9241L139.996 24.3244H137.325V28.9241H132.429V11.6135H140.342C145.065 11.6135 148.033 14.0617 148.033 18.0184C148.033 20.5656 146.796 22.445 144.645 23.4836L148.379 28.9241H143.136ZM143.087 18.0184C143.087 16.411 142.073 15.4713 140.045 15.4713H137.325V20.5408H140.045C142.073 20.5408 143.087 19.6011 143.087 18.0184Z" stroke="white" stroke-opacity="0.31" stroke-width="1.4" mask="url(#path-1-outside-1_8030_7514)"/>
<path d="M150.734 28.9241V11.6135H155.631V28.9241H150.734Z" stroke="white" stroke-opacity="0.31" stroke-width="1.4" mask="url(#path-1-outside-1_8030_7514)"/>
<path d="M159.114 28.9241V11.6135H167.3C173.037 11.6135 176.969 14.952 176.969 20.2688C176.969 25.5856 173.037 28.9241 167.3 28.9241H159.114ZM164.011 25.0168H167.102C170.045 25.0168 172.023 23.2611 172.023 20.2688C172.023 17.2766 170.045 15.5208 167.102 15.5208H164.011V25.0168Z" stroke="white" stroke-opacity="0.31" stroke-width="1.4" mask="url(#path-1-outside-1_8030_7514)"/>
<path d="M192.262 28.9241L190.901 25.5609H183.582L182.221 28.9241H177.226L184.867 11.6135H189.69L197.356 28.9241H192.262ZM185.016 21.9504H189.467L187.241 16.411L185.016 21.9504Z" stroke="white" stroke-opacity="0.31" stroke-width="1.4" mask="url(#path-1-outside-1_8030_7514)"/>
<path d="M213.558 11.6135L206.931 22.717V28.9241H202.034V22.6428L195.432 11.6135H200.6L204.705 18.4883L208.81 11.6135H213.558Z" stroke="white" stroke-opacity="0.31" stroke-width="1.4" mask="url(#path-1-outside-1_8030_7514)"/>
<mask id="path-2-outside-2_8030_7514" maskUnits="userSpaceOnUse" x="18.0215" y="-9.17969" width="197" height="20" fill="black">
<rect fill="white" x="18.0215" y="-9.17969" width="197" height="20"/>
<path d="M32.3259 0.450852C34.2795 1.14327 35.4912 2.62703 35.4912 4.72903C35.4912 7.72128 33.0183 9.47706 28.3692 9.47706H19.0215V-7.83348H27.8746C32.4248 -7.83348 34.6504 -5.97878 34.6504 -3.30801C34.6504 -1.65114 33.8096 -0.315757 32.3259 0.450852ZM27.2316 -4.29718H23.8684V-0.95872H27.2316C28.8638 -0.95872 29.7046 -1.52749 29.7046 -2.64031C29.7046 -3.72841 28.8638 -4.29718 27.2316 -4.29718ZM27.9735 5.94077C29.6551 5.94077 30.5454 5.37199 30.5454 4.18498C30.5454 2.99798 29.6551 2.4292 27.9735 2.4292H23.8684V5.94077H27.9735Z"/>
<path d="M38.0273 9.47706V-7.83348H42.9237V5.59456H51.1833V9.47706H38.0273Z"/>
<path d="M66.2723 9.47706L64.9122 6.11387H57.5923L56.2322 9.47706H51.2369L58.8782 -7.83348H63.7004L71.3665 9.47706H66.2723ZM59.0266 2.50339H63.4779L61.2522 -3.03598L59.0266 2.50339Z"/>
<path d="M81.1437 9.82327C75.6538 9.82327 71.6229 6.08914 71.6229 0.821793C71.6229 -4.44556 75.6538 -8.17969 81.1437 -8.17969C84.3338 -8.17969 86.9056 -7.01741 88.5872 -4.91541L85.4713 -2.09627C84.3832 -3.40692 83.0479 -4.12407 81.391 -4.12407C78.5471 -4.12407 76.5688 -2.14573 76.5688 0.821793C76.5688 3.78931 78.5471 5.76766 81.391 5.76766C83.0479 5.76766 84.3832 5.05051 85.4713 3.73985L88.5872 6.559C86.9056 8.66099 84.3338 9.82327 81.1437 9.82327Z"/>
<path d="M102.393 9.47706L97.4473 3.19581L95.6173 5.14943V9.47706H90.7704V-7.83348H95.6173V-0.637238L102.319 -7.83348H107.71L100.637 -0.167381L108.081 9.47706H102.393Z"/>
<path d="M130.139 -4.04989H121.459V-0.241568H129.1V3.54202H121.459V9.47706H116.562V-7.83348H130.139V-4.04989Z"/>
<path d="M143.136 9.47706L139.996 4.8774H137.325V9.47706H132.429V-7.83348H140.342C145.065 -7.83348 148.033 -5.38527 148.033 -1.42858C148.033 1.11854 146.796 2.99798 144.645 4.03661L148.379 9.47706H143.136ZM143.087 -1.42858C143.087 -3.03598 142.073 -3.9757 140.045 -3.9757H137.325V1.09382H140.045C142.073 1.09382 143.087 0.1541 143.087 -1.42858Z"/>
<path d="M150.734 9.47706V-7.83348H155.631V9.47706H150.734Z"/>
<path d="M159.114 9.47706V-7.83348H167.3C173.037 -7.83348 176.969 -4.49501 176.969 0.821793C176.969 6.1386 173.037 9.47706 167.3 9.47706H159.114ZM164.011 5.56983H167.102C170.045 5.56983 172.023 3.81404 172.023 0.821793C172.023 -2.17046 170.045 -3.92624 167.102 -3.92624H164.011V5.56983Z"/>
<path d="M192.262 9.47706L190.901 6.11387H183.582L182.221 9.47706H177.226L184.867 -7.83348H189.69L197.356 9.47706H192.262ZM185.016 2.50339H189.467L187.241 -3.03598L185.016 2.50339Z"/>
<path d="M213.558 -7.83348L206.931 3.27V9.47706H202.034V3.19581L195.432 -7.83348H200.6L204.705 -0.95872L208.81 -7.83348H213.558Z"/>
</mask>
<path d="M32.3259 0.450852C34.2795 1.14327 35.4912 2.62703 35.4912 4.72903C35.4912 7.72128 33.0183 9.47706 28.3692 9.47706H19.0215V-7.83348H27.8746C32.4248 -7.83348 34.6504 -5.97878 34.6504 -3.30801C34.6504 -1.65114 33.8096 -0.315757 32.3259 0.450852ZM27.2316 -4.29718H23.8684V-0.95872H27.2316C28.8638 -0.95872 29.7046 -1.52749 29.7046 -2.64031C29.7046 -3.72841 28.8638 -4.29718 27.2316 -4.29718ZM27.9735 5.94077C29.6551 5.94077 30.5454 5.37199 30.5454 4.18498C30.5454 2.99798 29.6551 2.4292 27.9735 2.4292H23.8684V5.94077H27.9735Z" stroke="white" stroke-opacity="0.31" stroke-width="1.4" mask="url(#path-2-outside-2_8030_7514)"/>
<path d="M38.0273 9.47706V-7.83348H42.9237V5.59456H51.1833V9.47706H38.0273Z" stroke="white" stroke-opacity="0.31" stroke-width="1.4" mask="url(#path-2-outside-2_8030_7514)"/>
<path d="M66.2723 9.47706L64.9122 6.11387H57.5923L56.2322 9.47706H51.2369L58.8782 -7.83348H63.7004L71.3665 9.47706H66.2723ZM59.0266 2.50339H63.4779L61.2522 -3.03598L59.0266 2.50339Z" stroke="white" stroke-opacity="0.31" stroke-width="1.4" mask="url(#path-2-outside-2_8030_7514)"/>
<path d="M81.1437 9.82327C75.6538 9.82327 71.6229 6.08914 71.6229 0.821793C71.6229 -4.44556 75.6538 -8.17969 81.1437 -8.17969C84.3338 -8.17969 86.9056 -7.01741 88.5872 -4.91541L85.4713 -2.09627C84.3832 -3.40692 83.0479 -4.12407 81.391 -4.12407C78.5471 -4.12407 76.5688 -2.14573 76.5688 0.821793C76.5688 3.78931 78.5471 5.76766 81.391 5.76766C83.0479 5.76766 84.3832 5.05051 85.4713 3.73985L88.5872 6.559C86.9056 8.66099 84.3338 9.82327 81.1437 9.82327Z" stroke="white" stroke-opacity="0.31" stroke-width="1.4" mask="url(#path-2-outside-2_8030_7514)"/>
<path d="M102.393 9.47706L97.4473 3.19581L95.6173 5.14943V9.47706H90.7704V-7.83348H95.6173V-0.637238L102.319 -7.83348H107.71L100.637 -0.167381L108.081 9.47706H102.393Z" stroke="white" stroke-opacity="0.31" stroke-width="1.4" mask="url(#path-2-outside-2_8030_7514)"/>
<path d="M130.139 -4.04989H121.459V-0.241568H129.1V3.54202H121.459V9.47706H116.562V-7.83348H130.139V-4.04989Z" stroke="white" stroke-opacity="0.31" stroke-width="1.4" mask="url(#path-2-outside-2_8030_7514)"/>
<path d="M143.136 9.47706L139.996 4.8774H137.325V9.47706H132.429V-7.83348H140.342C145.065 -7.83348 148.033 -5.38527 148.033 -1.42858C148.033 1.11854 146.796 2.99798 144.645 4.03661L148.379 9.47706H143.136ZM143.087 -1.42858C143.087 -3.03598 142.073 -3.9757 140.045 -3.9757H137.325V1.09382H140.045C142.073 1.09382 143.087 0.1541 143.087 -1.42858Z" stroke="white" stroke-opacity="0.31" stroke-width="1.4" mask="url(#path-2-outside-2_8030_7514)"/>
<path d="M150.734 9.47706V-7.83348H155.631V9.47706H150.734Z" stroke="white" stroke-opacity="0.31" stroke-width="1.4" mask="url(#path-2-outside-2_8030_7514)"/>
<path d="M159.114 9.47706V-7.83348H167.3C173.037 -7.83348 176.969 -4.49501 176.969 0.821793C176.969 6.1386 173.037 9.47706 167.3 9.47706H159.114ZM164.011 5.56983H167.102C170.045 5.56983 172.023 3.81404 172.023 0.821793C172.023 -2.17046 170.045 -3.92624 167.102 -3.92624H164.011V5.56983Z" stroke="white" stroke-opacity="0.31" stroke-width="1.4" mask="url(#path-2-outside-2_8030_7514)"/>
<path d="M192.262 9.47706L190.901 6.11387H183.582L182.221 9.47706H177.226L184.867 -7.83348H189.69L197.356 9.47706H192.262ZM185.016 2.50339H189.467L187.241 -3.03598L185.016 2.50339Z" stroke="white" stroke-opacity="0.31" stroke-width="1.4" mask="url(#path-2-outside-2_8030_7514)"/>
<path d="M213.558 -7.83348L206.931 3.27V9.47706H202.034V3.19581L195.432 -7.83348H200.6L204.705 -0.95872L208.81 -7.83348H213.558Z" stroke="white" stroke-opacity="0.31" stroke-width="1.4" mask="url(#path-2-outside-2_8030_7514)"/>
<mask id="path-3-outside-3_8030_7514" maskUnits="userSpaceOnUse" x="18.0215" y="52.9968" width="197" height="20" fill="black">
<rect fill="white" x="18.0215" y="52.9968" width="197" height="20"/>
<path d="M32.3259 62.6274C34.2795 63.3198 35.4912 64.8035 35.4912 66.9055C35.4912 69.8978 33.0183 71.6536 28.3692 71.6536H19.0215V54.343H27.8746C32.4248 54.343 34.6504 56.1977 34.6504 58.8685C34.6504 60.5254 33.8096 61.8608 32.3259 62.6274ZM27.2316 57.8793H23.8684V61.2178H27.2316C28.8638 61.2178 29.7046 60.649 29.7046 59.5362C29.7046 58.4481 28.8638 57.8793 27.2316 57.8793ZM27.9735 68.1173C29.6551 68.1173 30.5454 67.5485 30.5454 66.3615C30.5454 65.1745 29.6551 64.6057 27.9735 64.6057H23.8684V68.1173H27.9735Z"/>
<path d="M38.0273 71.6536V54.343H42.9237V67.7711H51.1833V71.6536H38.0273Z"/>
<path d="M66.2723 71.6536L64.9122 68.2904H57.5923L56.2322 71.6536H51.2369L58.8782 54.343H63.7004L71.3665 71.6536H66.2723ZM59.0266 64.6799H63.4779L61.2522 59.1405L59.0266 64.6799Z"/>
<path d="M81.1437 71.9998C75.6538 71.9998 71.6229 68.2657 71.6229 62.9983C71.6229 57.731 75.6538 53.9968 81.1437 53.9968C84.3338 53.9968 86.9056 55.1591 88.5872 57.2611L85.4713 60.0802C84.3832 58.7696 83.0479 58.0524 81.391 58.0524C78.5471 58.0524 76.5688 60.0308 76.5688 62.9983C76.5688 65.9658 78.5471 67.9442 81.391 67.9442C83.0479 67.9442 84.3832 67.227 85.4713 65.9164L88.5872 68.7355C86.9056 70.8375 84.3338 71.9998 81.1437 71.9998Z"/>
<path d="M102.393 71.6536L97.4473 65.3723L95.6173 67.3259V71.6536H90.7704V54.343H95.6173V61.5393L102.319 54.343H107.71L100.637 62.0091L108.081 71.6536H102.393Z"/>
<path d="M130.139 58.1266H121.459V61.9349H129.1V65.7185H121.459V71.6536H116.562V54.343H130.139V58.1266Z"/>
<path d="M143.136 71.6536L139.996 67.0539H137.325V71.6536H132.429V54.343H140.342C145.065 54.343 148.033 56.7912 148.033 60.7479C148.033 63.2951 146.796 65.1745 144.645 66.2131L148.379 71.6536H143.136ZM143.087 60.7479C143.087 59.1405 142.073 58.2008 140.045 58.2008H137.325V63.2703H140.045C142.073 63.2703 143.087 62.3306 143.087 60.7479Z"/>
<path d="M150.734 71.6536V54.343H155.631V71.6536H150.734Z"/>
<path d="M159.114 71.6536V54.343H167.3C173.037 54.343 176.969 57.6815 176.969 62.9983C176.969 68.3151 173.037 71.6536 167.3 71.6536H159.114ZM164.011 67.7463H167.102C170.045 67.7463 172.023 65.9906 172.023 62.9983C172.023 60.0061 170.045 58.2503 167.102 58.2503H164.011V67.7463Z"/>
<path d="M192.262 71.6536L190.901 68.2904H183.582L182.221 71.6536H177.226L184.867 54.343H189.69L197.356 71.6536H192.262ZM185.016 64.6799H189.467L187.241 59.1405L185.016 64.6799Z"/>
<path d="M213.558 54.343L206.931 65.4465V71.6536H202.034V65.3723L195.432 54.343H200.6L204.705 61.2178L208.81 54.343H213.558Z"/>
</mask>
<path d="M32.3259 62.6274C34.2795 63.3198 35.4912 64.8035 35.4912 66.9055C35.4912 69.8978 33.0183 71.6536 28.3692 71.6536H19.0215V54.343H27.8746C32.4248 54.343 34.6504 56.1977 34.6504 58.8685C34.6504 60.5254 33.8096 61.8608 32.3259 62.6274ZM27.2316 57.8793H23.8684V61.2178H27.2316C28.8638 61.2178 29.7046 60.649 29.7046 59.5362C29.7046 58.4481 28.8638 57.8793 27.2316 57.8793ZM27.9735 68.1173C29.6551 68.1173 30.5454 67.5485 30.5454 66.3615C30.5454 65.1745 29.6551 64.6057 27.9735 64.6057H23.8684V68.1173H27.9735Z" stroke="white" stroke-opacity="0.31" stroke-width="1.4" mask="url(#path-3-outside-3_8030_7514)"/>
<path d="M38.0273 71.6536V54.343H42.9237V67.7711H51.1833V71.6536H38.0273Z" stroke="white" stroke-opacity="0.31" stroke-width="1.4" mask="url(#path-3-outside-3_8030_7514)"/>
<path d="M66.2723 71.6536L64.9122 68.2904H57.5923L56.2322 71.6536H51.2369L58.8782 54.343H63.7004L71.3665 71.6536H66.2723ZM59.0266 64.6799H63.4779L61.2522 59.1405L59.0266 64.6799Z" stroke="white" stroke-opacity="0.31" stroke-width="1.4" mask="url(#path-3-outside-3_8030_7514)"/>
<path d="M81.1437 71.9998C75.6538 71.9998 71.6229 68.2657 71.6229 62.9983C71.6229 57.731 75.6538 53.9968 81.1437 53.9968C84.3338 53.9968 86.9056 55.1591 88.5872 57.2611L85.4713 60.0802C84.3832 58.7696 83.0479 58.0524 81.391 58.0524C78.5471 58.0524 76.5688 60.0308 76.5688 62.9983C76.5688 65.9658 78.5471 67.9442 81.391 67.9442C83.0479 67.9442 84.3832 67.227 85.4713 65.9164L88.5872 68.7355C86.9056 70.8375 84.3338 71.9998 81.1437 71.9998Z" stroke="white" stroke-opacity="0.31" stroke-width="1.4" mask="url(#path-3-outside-3_8030_7514)"/>
<path d="M102.393 71.6536L97.4473 65.3723L95.6173 67.3259V71.6536H90.7704V54.343H95.6173V61.5393L102.319 54.343H107.71L100.637 62.0091L108.081 71.6536H102.393Z" stroke="white" stroke-opacity="0.31" stroke-width="1.4" mask="url(#path-3-outside-3_8030_7514)"/>
<path d="M130.139 58.1266H121.459V61.9349H129.1V65.7185H121.459V71.6536H116.562V54.343H130.139V58.1266Z" stroke="white" stroke-opacity="0.31" stroke-width="1.4" mask="url(#path-3-outside-3_8030_7514)"/>
<path d="M143.136 71.6536L139.996 67.0539H137.325V71.6536H132.429V54.343H140.342C145.065 54.343 148.033 56.7912 148.033 60.7479C148.033 63.2951 146.796 65.1745 144.645 66.2131L148.379 71.6536H143.136ZM143.087 60.7479C143.087 59.1405 142.073 58.2008 140.045 58.2008H137.325V63.2703H140.045C142.073 63.2703 143.087 62.3306 143.087 60.7479Z" stroke="white" stroke-opacity="0.31" stroke-width="1.4" mask="url(#path-3-outside-3_8030_7514)"/>
<path d="M150.734 71.6536V54.343H155.631V71.6536H150.734Z" stroke="white" stroke-opacity="0.31" stroke-width="1.4" mask="url(#path-3-outside-3_8030_7514)"/>
<path d="M159.114 71.6536V54.343H167.3C173.037 54.343 176.969 57.6815 176.969 62.9983C176.969 68.3151 173.037 71.6536 167.3 71.6536H159.114ZM164.011 67.7463H167.102C170.045 67.7463 172.023 65.9906 172.023 62.9983C172.023 60.0061 170.045 58.2503 167.102 58.2503H164.011V67.7463Z" stroke="white" stroke-opacity="0.31" stroke-width="1.4" mask="url(#path-3-outside-3_8030_7514)"/>
<path d="M192.262 71.6536L190.901 68.2904H183.582L182.221 71.6536H177.226L184.867 54.343H189.69L197.356 71.6536H192.262ZM185.016 64.6799H189.467L187.241 59.1405L185.016 64.6799Z" stroke="white" stroke-opacity="0.31" stroke-width="1.4" mask="url(#path-3-outside-3_8030_7514)"/>
<path d="M213.558 54.343L206.931 65.4465V71.6536H202.034V65.3723L195.432 54.343H200.6L204.705 61.2178L208.81 54.343H213.558Z" stroke="white" stroke-opacity="0.31" stroke-width="1.4" mask="url(#path-3-outside-3_8030_7514)"/>
<mask id="path-4-outside-4_8030_7514" maskUnits="userSpaceOnUse" x="18.0215" y="33.6582" width="197" height="20" fill="black">
<rect fill="white" x="18.0215" y="33.6582" width="197" height="20"/>
<path d="M32.3259 43.2887C34.2795 43.9812 35.4912 45.4649 35.4912 47.5669C35.4912 50.5592 33.0183 52.315 28.3692 52.315H19.0215V35.0044H27.8746C32.4248 35.0044 34.6504 36.8591 34.6504 39.5299C34.6504 41.1867 33.8096 42.5221 32.3259 43.2887ZM27.2316 38.5407H23.8684V41.8792H27.2316C28.8638 41.8792 29.7046 41.3104 29.7046 40.1976C29.7046 39.1095 28.8638 38.5407 27.2316 38.5407ZM27.9735 48.7787C29.6551 48.7787 30.5454 48.2099 30.5454 47.0229C30.5454 45.8359 29.6551 45.2671 27.9735 45.2671H23.8684V48.7787H27.9735Z"/>
<path d="M38.0273 52.315V35.0044H42.9237V48.4324H51.1833V52.315H38.0273Z"/>
<path d="M66.2723 52.315L64.9122 48.9518H57.5923L56.2322 52.315H51.2369L58.8782 35.0044H63.7004L71.3665 52.315H66.2723ZM59.0266 45.3413H63.4779L61.2522 39.8019L59.0266 45.3413Z"/>
<path d="M81.1437 52.6612C75.6538 52.6612 71.6229 48.927 71.6229 43.6597C71.6229 38.3923 75.6538 34.6582 81.1437 34.6582C84.3338 34.6582 86.9056 35.8205 88.5872 37.9225L85.4713 40.7416C84.3832 39.431 83.0479 38.7138 81.391 38.7138C78.5471 38.7138 76.5688 40.6922 76.5688 43.6597C76.5688 46.6272 78.5471 48.6056 81.391 48.6056C83.0479 48.6056 84.3832 47.8884 85.4713 46.5777L88.5872 49.3969C86.9056 51.4989 84.3338 52.6612 81.1437 52.6612Z"/>
<path d="M102.393 52.315L97.4473 46.0337L95.6173 47.9873V52.315H90.7704V35.0044H95.6173V42.2007L102.319 35.0044H107.71L100.637 42.6705L108.081 52.315H102.393Z"/>
<path d="M130.139 38.788H121.459V42.5963H129.1V46.3799H121.459V52.315H116.562V35.0044H130.139V38.788Z"/>
<path d="M143.136 52.315L139.996 47.7153H137.325V52.315H132.429V35.0044H140.342C145.065 35.0044 148.033 37.4526 148.033 41.4093C148.033 43.9564 146.796 45.8359 144.645 46.8745L148.379 52.315H143.136ZM143.087 41.4093C143.087 39.8019 142.073 38.8622 140.045 38.8622H137.325V43.9317H140.045C142.073 43.9317 143.087 42.992 143.087 41.4093Z"/>
<path d="M150.734 52.315V35.0044H155.631V52.315H150.734Z"/>
<path d="M159.114 52.315V35.0044H167.3C173.037 35.0044 176.969 38.3429 176.969 43.6597C176.969 48.9765 173.037 52.315 167.3 52.315H159.114ZM164.011 48.4077H167.102C170.045 48.4077 172.023 46.6519 172.023 43.6597C172.023 40.6674 170.045 38.9116 167.102 38.9116H164.011V48.4077Z"/>
<path d="M192.262 52.315L190.901 48.9518H183.582L182.221 52.315H177.226L184.867 35.0044H189.69L197.356 52.315H192.262ZM185.016 45.3413H189.467L187.241 39.8019L185.016 45.3413Z"/>
<path d="M213.558 35.0044L206.931 46.1079V52.315H202.034V46.0337L195.432 35.0044H200.6L204.705 41.8792L208.81 35.0044H213.558Z"/>
</mask>
<path d="M32.3259 43.2887C34.2795 43.9812 35.4912 45.4649 35.4912 47.5669C35.4912 50.5592 33.0183 52.315 28.3692 52.315H19.0215V35.0044H27.8746C32.4248 35.0044 34.6504 36.8591 34.6504 39.5299C34.6504 41.1867 33.8096 42.5221 32.3259 43.2887ZM27.2316 38.5407H23.8684V41.8792H27.2316C28.8638 41.8792 29.7046 41.3104 29.7046 40.1976C29.7046 39.1095 28.8638 38.5407 27.2316 38.5407ZM27.9735 48.7787C29.6551 48.7787 30.5454 48.2099 30.5454 47.0229C30.5454 45.8359 29.6551 45.2671 27.9735 45.2671H23.8684V48.7787H27.9735Z" stroke="white" stroke-opacity="0.31" stroke-width="1.4" mask="url(#path-4-outside-4_8030_7514)"/>
<path d="M38.0273 52.315V35.0044H42.9237V48.4324H51.1833V52.315H38.0273Z" stroke="white" stroke-opacity="0.31" stroke-width="1.4" mask="url(#path-4-outside-4_8030_7514)"/>
<path d="M66.2723 52.315L64.9122 48.9518H57.5923L56.2322 52.315H51.2369L58.8782 35.0044H63.7004L71.3665 52.315H66.2723ZM59.0266 45.3413H63.4779L61.2522 39.8019L59.0266 45.3413Z" stroke="white" stroke-opacity="0.31" stroke-width="1.4" mask="url(#path-4-outside-4_8030_7514)"/>
<path d="M81.1437 52.6612C75.6538 52.6612 71.6229 48.927 71.6229 43.6597C71.6229 38.3923 75.6538 34.6582 81.1437 34.6582C84.3338 34.6582 86.9056 35.8205 88.5872 37.9225L85.4713 40.7416C84.3832 39.431 83.0479 38.7138 81.391 38.7138C78.5471 38.7138 76.5688 40.6922 76.5688 43.6597C76.5688 46.6272 78.5471 48.6056 81.391 48.6056C83.0479 48.6056 84.3832 47.8884 85.4713 46.5777L88.5872 49.3969C86.9056 51.4989 84.3338 52.6612 81.1437 52.6612Z" stroke="white" stroke-opacity="0.31" stroke-width="1.4" mask="url(#path-4-outside-4_8030_7514)"/>
<path d="M102.393 52.315L97.4473 46.0337L95.6173 47.9873V52.315H90.7704V35.0044H95.6173V42.2007L102.319 35.0044H107.71L100.637 42.6705L108.081 52.315H102.393Z" stroke="white" stroke-opacity="0.31" stroke-width="1.4" mask="url(#path-4-outside-4_8030_7514)"/>
<path d="M130.139 38.788H121.459V42.5963H129.1V46.3799H121.459V52.315H116.562V35.0044H130.139V38.788Z" stroke="white" stroke-opacity="0.31" stroke-width="1.4" mask="url(#path-4-outside-4_8030_7514)"/>
<path d="M143.136 52.315L139.996 47.7153H137.325V52.315H132.429V35.0044H140.342C145.065 35.0044 148.033 37.4526 148.033 41.4093C148.033 43.9564 146.796 45.8359 144.645 46.8745L148.379 52.315H143.136ZM143.087 41.4093C143.087 39.8019 142.073 38.8622 140.045 38.8622H137.325V43.9317H140.045C142.073 43.9317 143.087 42.992 143.087 41.4093Z" stroke="white" stroke-opacity="0.31" stroke-width="1.4" mask="url(#path-4-outside-4_8030_7514)"/>
<path d="M150.734 52.315V35.0044H155.631V52.315H150.734Z" stroke="white" stroke-opacity="0.31" stroke-width="1.4" mask="url(#path-4-outside-4_8030_7514)"/>
<path d="M159.114 52.315V35.0044H167.3C173.037 35.0044 176.969 38.3429 176.969 43.6597C176.969 48.9765 173.037 52.315 167.3 52.315H159.114ZM164.011 48.4077H167.102C170.045 48.4077 172.023 46.6519 172.023 43.6597C172.023 40.6674 170.045 38.9116 167.102 38.9116H164.011V48.4077Z" stroke="white" stroke-opacity="0.31" stroke-width="1.4" mask="url(#path-4-outside-4_8030_7514)"/>
<path d="M192.262 52.315L190.901 48.9518H183.582L182.221 52.315H177.226L184.867 35.0044H189.69L197.356 52.315H192.262ZM185.016 45.3413H189.467L187.241 39.8019L185.016 45.3413Z" stroke="white" stroke-opacity="0.31" stroke-width="1.4" mask="url(#path-4-outside-4_8030_7514)"/>
<path d="M213.558 35.0044L206.931 46.1079V52.315H202.034V46.0337L195.432 35.0044H200.6L204.705 41.8792L208.81 35.0044H213.558Z" stroke="white" stroke-opacity="0.31" stroke-width="1.4" mask="url(#path-4-outside-4_8030_7514)"/>
<g filter="url(#filter0_f_8030_7514)">
<rect x="13.8696" y="17.6473" width="202.791" height="28.6969" fill="black" fill-opacity="0.9"/>
</g>
<g filter="url(#filter1_f_8030_7514)">
<rect x="11" y="8.08167" width="208.531" height="4.78281" fill="black"/>
</g>
<g filter="url(#filter2_f_8030_7514)">
<rect x="11" y="49.2139" width="208.531" height="6.69594" fill="black"/>
</g>
<g filter="url(#filter3_d_8030_7514)">
<path d="M32.0519 31.6492C34.0056 32.3416 35.2173 33.8254 35.2173 35.9274C35.2173 38.9196 32.7444 40.6754 28.0952 40.6754H18.7476V23.3649H27.6007C32.1509 23.3649 34.3765 25.2196 34.3765 27.8904C34.3765 29.5472 33.5357 30.8826 32.0519 31.6492ZM26.9577 26.9012H23.5945V30.2396H26.9577C28.5898 30.2396 29.4306 29.6709 29.4306 28.558C29.4306 27.47 28.5898 26.9012 26.9577 26.9012ZM27.6996 37.1391C29.3812 37.1391 30.2714 36.5704 30.2714 35.3833C30.2714 34.1963 29.3812 33.6276 27.6996 33.6276H23.5945V37.1391H27.6996Z" fill="white"/>
<path d="M37.7534 40.6754V23.3649H42.6498V36.7929H50.9094V40.6754H37.7534Z" fill="white"/>
<path d="M65.9984 40.6754L64.6383 37.3122H57.3184L55.9583 40.6754H50.9629L58.6043 23.3649H63.4265L71.0926 40.6754H65.9984ZM58.7527 33.7018H63.204L60.9783 28.1624L58.7527 33.7018Z" fill="white"/>
<path d="M80.8698 41.0216C75.3799 41.0216 71.349 37.2875 71.349 32.0202C71.349 26.7528 75.3799 23.0187 80.8698 23.0187C84.0599 23.0187 86.6317 24.181 88.3133 26.283L85.1974 29.1021C84.1093 27.7914 82.7739 27.0743 81.1171 27.0743C78.2732 27.0743 76.2949 29.0526 76.2949 32.0202C76.2949 34.9877 78.2732 36.966 81.1171 36.966C82.7739 36.966 84.1093 36.2489 85.1974 34.9382L88.3133 37.7574C86.6317 39.8594 84.0599 41.0216 80.8698 41.0216Z" fill="white"/>
<path d="M102.119 40.6754L97.1734 34.3942L95.3434 36.3478V40.6754H90.4964V23.3649H95.3434V30.5611L102.045 23.3649H107.436L100.363 31.031L107.807 40.6754H102.119Z" fill="white"/>
<path d="M129.865 27.1485H121.185V30.9568H128.826V34.7404H121.185V40.6754H116.288V23.3649H129.865V27.1485Z" fill="white"/>
<path d="M142.863 40.6754L139.722 36.0758H137.051V40.6754H132.155V23.3649H140.068C144.791 23.3649 147.759 25.8131 147.759 29.7698C147.759 32.3169 146.522 34.1963 144.371 35.235L148.105 40.6754H142.863ZM142.813 29.7698C142.813 28.1624 141.799 27.2227 139.771 27.2227H137.051V32.2922H139.771C141.799 32.2922 142.813 31.3525 142.813 29.7698Z" fill="white"/>
<path d="M150.46 40.6754V23.3649H155.357V40.6754H150.46Z" fill="white"/>
<path d="M158.84 40.6754V23.3649H167.026C172.763 23.3649 176.695 26.7033 176.695 32.0202C176.695 37.337 172.763 40.6754 167.026 40.6754H158.84ZM163.737 36.7682H166.828C169.771 36.7682 171.749 35.0124 171.749 32.0202C171.749 29.0279 169.771 27.2721 166.828 27.2721H163.737V36.7682Z" fill="white"/>
<path d="M191.988 40.6754L190.627 37.3122H183.308L181.947 40.6754H176.952L184.594 23.3649H189.416L197.082 40.6754H191.988ZM184.742 33.7018H189.193L186.968 28.1624L184.742 33.7018Z" fill="white"/>
<path d="M213.284 23.3649L206.657 34.4684V40.6754H201.76V34.3942L195.158 23.3649H200.326L204.431 30.2396L208.536 23.3649H213.284Z" fill="white"/>
</g>
<g filter="url(#filter4_d_8030_7514)">
<path d="M219.272 6.2886C219.892 6.95192 220.912 7.17983 221.801 6.85412C223.074 6.38725 224.506 7.06758 224.805 8.28281C225.014 9.13152 225.8 9.76337 226.755 9.84926C228.122 9.97172 229.04 11.1776 228.682 12.3801C228.432 13.2203 228.804 14.1107 229.606 14.5886C230.753 15.2732 230.948 16.7274 230.015 17.6416C229.363 18.2802 229.236 19.225 229.701 19.9861C230.366 21.0755 229.793 22.4455 228.498 22.8614C227.594 23.1522 226.997 23.9354 227.018 24.8054C227.048 26.0504 225.839 27.0216 224.479 26.8447C223.529 26.7205 222.599 27.1636 222.172 27.9425C221.56 29.0574 219.991 29.4078 218.878 28.6782C218.101 28.1679 217.05 28.1679 216.273 28.6782C215.16 29.4078 213.591 29.0574 212.979 27.9425C212.552 27.1636 211.622 26.7205 210.672 26.8447C209.313 27.0224 208.103 26.0504 208.133 24.8054C208.155 23.9354 207.557 23.1522 206.653 22.8614C205.358 22.4455 204.785 21.0755 205.45 19.9861C205.915 19.225 205.788 18.2794 205.136 17.6416C204.203 16.7282 204.398 15.2732 205.545 14.5886C206.346 14.1107 206.719 13.2194 206.469 12.3801C206.111 11.1784 207.029 9.97257 208.396 9.84926C209.351 9.76337 210.137 9.13152 210.346 8.28281C210.645 7.06758 212.077 6.3864 213.35 6.85412C214.239 7.18068 215.259 6.95277 215.88 6.2886C216.767 5.3387 218.383 5.3387 219.272 6.2886Z" fill="#E92828"/>
</g>
<path d="M208.577 21C208.112 21 207.684 20.8983 207.292 20.6948C206.904 20.4914 206.59 20.2207 206.352 19.8828C206.117 19.5413 206 19.1671 206 18.7602L206.013 15.2234C206.013 14.8093 206.13 14.4369 206.365 14.1063C206.595 13.772 206.906 13.505 207.298 13.3052C207.69 13.1017 208.117 13 208.577 13C209.055 13 209.483 13.0999 209.863 13.2997C210.246 13.4995 210.553 13.7684 210.783 14.1063C211.018 14.4405 211.135 14.8129 211.135 15.2234L211.148 18.7602C211.148 19.1671 211.033 19.5395 210.803 19.8774C210.568 20.2189 210.257 20.4914 209.869 20.6948C209.481 20.8983 209.05 21 208.577 21ZM208.577 19.654C208.841 19.654 209.072 19.5631 209.268 19.3815C209.464 19.1962 209.562 18.9891 209.562 18.7602L209.549 15.2234C209.549 14.9764 209.458 14.7675 209.274 14.5967C209.091 14.426 208.859 14.3406 208.577 14.3406C208.309 14.3406 208.078 14.4242 207.886 14.5913C207.695 14.7584 207.599 14.9691 207.599 15.2234V18.7602C207.599 19.0036 207.695 19.2144 207.886 19.3924C208.078 19.5668 208.309 19.654 208.577 19.654Z" fill="white"/>
<path d="M213.674 20.891H212.203C212.16 20.891 212.139 20.8728 212.139 20.8365L212.165 13.1689C212.165 13.1399 212.182 13.1253 212.216 13.1253H216.411C216.454 13.1253 216.475 13.1399 216.475 13.1689V14.4278C216.475 14.4569 216.458 14.4714 216.424 14.4714H213.738V16.2044H216.424C216.458 16.2044 216.475 16.2225 216.475 16.2589L216.488 17.5232C216.488 17.5522 216.466 17.5668 216.424 17.5668H213.738V20.8365C213.738 20.8728 213.716 20.891 213.674 20.891Z" fill="white"/>
<path d="M219.186 20.891H217.715C217.673 20.891 217.651 20.8728 217.651 20.8365L217.677 13.1689C217.677 13.1399 217.694 13.1253 217.728 13.1253H221.923C221.966 13.1253 221.987 13.1399 221.987 13.1689V14.4278C221.987 14.4569 221.97 14.4714 221.936 14.4714H219.25V16.2044H221.936C221.97 16.2044 221.987 16.2225 221.987 16.2589L222 17.5232C222 17.5522 221.979 17.5668 221.936 17.5668H219.25V20.8365C219.25 20.8728 219.229 20.891 219.186 20.891Z" fill="white"/>
<defs>
<filter id="filter0_f_8030_7514" x="0.869629" y="4.64734" width="228.792" height="54.6969" filterUnits="userSpaceOnUse" color-interpolation-filters="sRGB">
<feFlood flood-opacity="0" result="BackgroundImageFix"/>
<feBlend mode="normal" in="SourceGraphic" in2="BackgroundImageFix" result="shape"/>
<feGaussianBlur stdDeviation="6.5" result="effect1_foregroundBlur_8030_7514"/>
</filter>
<filter id="filter1_f_8030_7514" x="7" y="4.08167" width="216.531" height="12.7828" filterUnits="userSpaceOnUse" color-interpolation-filters="sRGB">
<feFlood flood-opacity="0" result="BackgroundImageFix"/>
<feBlend mode="normal" in="SourceGraphic" in2="BackgroundImageFix" result="shape"/>
<feGaussianBlur stdDeviation="2" result="effect1_foregroundBlur_8030_7514"/>
</filter>
<filter id="filter2_f_8030_7514" x="7" y="45.2139" width="216.531" height="14.6959" filterUnits="userSpaceOnUse" color-interpolation-filters="sRGB">
<feFlood flood-opacity="0" result="BackgroundImageFix"/>
<feBlend mode="normal" in="SourceGraphic" in2="BackgroundImageFix" result="shape"/>
<feGaussianBlur stdDeviation="2" result="effect1_foregroundBlur_8030_7514"/>
</filter>
<filter id="filter3_d_8030_7514" x="8.74756" y="16.0187" width="214.537" height="38.0029" filterUnits="userSpaceOnUse" color-interpolation-filters="sRGB">
<feFlood flood-opacity="0" result="BackgroundImageFix"/>
<feColorMatrix in="SourceAlpha" type="matrix" values="0 0 0 0 0 0 0 0 0 0 0 0 0 0 0 0 0 0 127 0" result="hardAlpha"/>
<feOffset dy="3"/>
<feGaussianBlur stdDeviation="5"/>
<feComposite in2="hardAlpha" operator="out"/>
<feColorMatrix type="matrix" values="0 0 0 0 0 0 0 0 0 0 0 0 0 0 0 0 0 0 0.15 0"/>
<feBlend mode="multiply" in2="BackgroundImageFix" result="effect1_dropShadow_8030_7514"/>
<feBlend mode="normal" in="SourceGraphic" in2="effect1_dropShadow_8030_7514" result="shape"/>
</filter>
<filter id="filter4_d_8030_7514" x="185.544" y="-8.42383" width="64.063" height="61.4849" filterUnits="userSpaceOnUse" color-interpolation-filters="sRGB">
<feFlood flood-opacity="0" result="BackgroundImageFix"/>
<feColorMatrix in="SourceAlpha" type="matrix" values="0 0 0 0 0 0 0 0 0 0 0 0 0 0 0 0 0 0 127 0" result="hardAlpha"/>
<feOffset dy="5"/>
<feGaussianBlur stdDeviation="9.5"/>
<feComposite in2="hardAlpha" operator="out"/>
<feColorMatrix type="matrix" values="0 0 0 0 0 0 0 0 0 0 0 0 0 0 0 0 0 0 0.25 0"/>
<feBlend mode="normal" in2="BackgroundImageFix" result="effect1_dropShadow_8030_7514"/>
<feBlend mode="normal" in="SourceGraphic" in2="effect1_dropShadow_8030_7514" result="shape"/>
</filter>
</defs>
</svg>
